:FULLY-SPECIFIED
:FORCE-ALL-JOINTS-BE-3DOF
:DEGREES
1
root 0.0917792 17.1113 -36.2281 4.68854 2.37172 2.1196
lfemur -7.00586 -1.73986 -27.8547
ltibia 41.1896 0 0
lfoot -18.4606 0.563554 0
ltoes -11.2184 0 0
rfemur -36.1767 -4.01455 16.7326
rtibia 108.236 0 0
rfoot 12.8687 -5.27186 0
rtoes 8.52629 0 0
lowerback 19.257 -1.22373 -5.06989
upperback 1.70725 -2.88959 -2.17631
thorax -8.80689 -1.22956 1.27549
lowerneck -3.02729 -0.130267 -1.32286
upperneck -12.924 0.233441 4.10486
head -3.67612 0.0262048 1.58301
lclavicle -9.54166e-15 -7.15625e-15 0
lhumerus -10.0203 -20.6355 82.8192
lradius 113.865 0 0
lwrist 27.5011 0 0
lhand -37.1915 8.38258 0
lfingers 7.12502 0 0
lthumb -10.2594 38.1124 0
rclavicle -9.54166e-15 -7.15625e-15 0
rhumerus -54.6221 8.39899 -88.3047
rradius 81.0784 0 0
rwrist -0.792659 0 0
rhand -48.8742 40.2847 0
rfingers 7.12502 0 0
rthumb -21.5082 11.4588 0
2
root 0.106441 17.1342 -35.6731 4.63513 1.94189 2.09006
lfemur -6.611 -1.31619 -27.7628
ltibia 42.4802 -0 0
lfoot -16.9155 0.68305 0.0511784
ltoes -11.0506 0 0
rfemur -35.8389 -3.77222 17.0112
rtibia 105.638 -0 0
rfoot 12.3904 -4.97924 -0.0369113
rtoes 8.5778 -0 0
lowerback 19.1373 -1.23315 -4.96036
upperback 1.69837 -2.86552 -2.09819
thorax -8.75187 -1.22159 1.28773
lowerneck -3.06272 -0.013202 -1.32417
upperneck -12.8597 0.370871 3.92823
head -3.6477 0.100994 1.52375
lclavicle -9.19218e-15 -6.65929e-15 -4.54683e-32
lhumerus -10.8122 -20.6604 83.186
lradius 113.648 -0 0
lwrist 27.596 0 0
lhand -37.2493 8.44127 -0.00088772
lfingers 7.12502 -0 0
lthumb -10.3151 38.1681 -0.000812375
rclavicle -9.19218e-15 -6.65929e-15 -4.54683e-32
rhumerus -54.57 8.23258 -88.1811
rradius 81.4619 -0 0
rwrist -0.913587 0 0
rhand -48.7137 40.2026 -0.00345169
rfingers 7.12502 -0 0
rthumb -21.3538 11.3615 -0.00393715
3
root 0.121103 17.1572 -35.1181 4.58195 1.51204 2.06092
lfemur -6.21551 -0.893171 -27.6679
ltibia 43.7708 -0 0
lfoot -15.3703 0.803882 0.0991162
ltoes -10.8827 0 0
rfemur -35.5 -3.53154 17.2911
rtibia 103.04 -0 0
rfoot 11.9118 -4.68632 -0.0713778
rtoes 8.62932 -0 0
lowerback 19.0176 -1.24234 -4.85081
upperback 1.68951 -2.84144 -2.02008
thorax -8.69684 -1.21364 1.29999
lowerneck -3.09815 0.103862 -1.32555
upperneck -12.7959 0.508499 3.75174
head -3.61935 0.175812 1.46452
lclavicle -8.84271e-15 -6.16233e-15 -8.79054e-32
lhumerus -11.6044 -20.6806 83.5531
lradius 113.432 -0 0
lwrist 27.6909 0 0
lhand -37.307 8.49995 -0.00171627
lfingers 7.12502 -0 0
lthumb -10.3708 38.2238 -0.0015706
rclavicle -8.84271e-15 -6.16233e-15 -8.79054e-32
rhumerus -54.5184 8.06606 -88.0576
rradius 81.8455 -0 0
rwrist -1.03452 0 0
rhand -48.5531 40.1206 -0.00667343
rfingers 7.12502 -0 0
rthumb -21.1995 11.2641 -0.007612
4
root 0.135764 17.1801 -34.5631 4.529 1.08216 2.03219
lfemur -5.81936 -0.470814 -27.5701
ltibia 45.0614 -0 0
lfoot -13.8251 0.925963 0.143778
ltoes -10.7149 0 0
rfemur -35.16 -3.29252 17.5724
rtibia 100.441 -0 0
rfoot 11.4332 -4.39312 -0.103396
rtoes 8.68083 -0 0
lowerback 18.8978 -1.25131 -4.74123
upperback 1.6807 -2.81734 -1.94197
thorax -8.64181 -1.2057 1.31225
lowerneck -3.13358 0.220926 -1.327
upperneck -12.7325 0.646322 3.57541
head -3.59108 0.25066 1.40533
lclavicle -8.49323e-15 -5.66537e-15 -1.27311e-31
lhumerus -12.3968 -20.696 83.9206
lradius 113.215 -0 0
lwrist 27.7858 0 0
lhand -37.3648 8.55864 -0.00248564
lfingers 7.12502 -0 0
lthumb -10.4265 38.2795 -0.00227467
rclavicle -8.49323e-15 -5.66537e-15 -1.27311e-31
rhumerus -54.4671 7.89944 -87.9344
rradius 82.229 -0 0
rwrist -1.15544 0 0
rhand -48.3926 40.0385 -0.00966517
rfingers 7.12502 -0 0
rthumb -21.0451 11.1667 -0.0110245
